<?xml version="1.0" standalone="no"?>
<!DOCTYPE svg PUBLIC "-//W3C//DTD SVG 1.1//EN" "http://www.w3.org/Graphics/SVG/1.1/DTD/svg11.dtd" >
<svg xmlns="http://www.w3.org/2000/svg">
<metadata></metadata>
<defs>
<font id="kl1_monosansinvers" horiz-adv-x="559" >
<font-face units-per-em="2048" ascent="1638" descent="-410" />
<missing-glyph horiz-adv-x="500" />
<glyph horiz-adv-x="0" />
<glyph unicode="&#xd;" />
<glyph unicode=" " />
<glyph unicode="!" horiz-adv-x="524" d="M-2 -82v1577h528v-1577h-528zM147 -2h271v278h-271v-278zM147 879q0 -104 29 -256q25 -127 51 -254h111q25 127 49 252q31 152 31 256v557h-271v-555z" />
<glyph unicode="&#x22;" horiz-adv-x="614" d="M-25 -82v1577h664v-1577h-664zM53 874h189v560h-189v-560zM369 874h190v560h-190v-560z" />
<glyph unicode="#" horiz-adv-x="1120" d="M-25 -82v1577h1170v-1577h-1170zM55 381h168l-53 -381h190l54 381h194l-55 -381h192l54 381h196v176h-170l37 254h195v178h-168l53 381h-190l-56 -381h-192l53 381h-190l-56 -381h-194v-178h170l-37 -254h-195v-176zM440 557l37 254h193l-35 -254h-195z" />
<glyph unicode="$" horiz-adv-x="1085" d="M-20 -82v1577h1126v-1577h-1126zM51 207q162 -221 426 -232l2 -38h176v38q170 6 292 135.5t122 301.5q0 180 -123 284q-90 76 -289 138l-2 333q123 -16 205 -151l184 145q-59 98 -166.5 161.5t-222.5 70.5v80h-176v-80q-164 -4 -282.5 -111.5t-118.5 -269.5 q0 -174 121 -273q72 -57 278 -133l2 -405q-156 31 -219 164zM350 1030q0 117 131 141v-282q-131 31 -131 141zM655 201v346q144 -37 144 -162q0 -61 -41 -112.5t-101 -69.5z" />
<glyph unicode="%" horiz-adv-x="1691" d="M-23 -82v1577h1737v-1577h-1737zM111 1028q0 -160 82 -258q86 -104 241 -104q160 0 246 104q82 96 82 258q0 160 -80 258q-88 106 -246 107q-156 0 -243 -107q-82 -98 -82 -258zM309 1028h2q0 211 125 211t125 -209q0 -213 -125 -213q-127 0 -127 211zM397 -55h176 l838 1521h-176zM1008 340q0 -160 82 -258q88 -104 243 -105q158 0 246 105q80 98 80 258t-80 258q-88 106 -246 107q-156 0 -243 -107q-82 -98 -82 -258zM1208 340q0 211 125 211t125 -211t-125 -211t-125 211z" />
<glyph unicode="&#x26;" horiz-adv-x="1267" d="M-27 -82v1577h1321v-1577h-1321zM51 391q0 -190 133 -305q125 -111 320 -111q176 0 350 109q84 -84 231 -84q72 0 119 12v195q-29 -6 -53 -6q-66 0 -137 65q68 72 121 189.5t55 214.5h-227q-4 -125 -84 -226l-185 281q268 113 269 330q0 137 -91.5 220t-230.5 83 q-150 0 -252 -93.5t-102 -240.5q0 -100 69 -213q-131 -63 -213 -168q-92 -119 -92 -252zM299 401q0 78 50 139.5t126 86.5l242 -357q-86 -82 -199 -82q-94 0 -156.5 59.5t-62.5 153.5zM530 1057q0 47 30 78.5t77 31.5q49 0 81 -32.5t32 -81.5q0 -57 -50 -101 q-43 -35 -104 -47q-63 82 -64 152h-2z" />
<glyph unicode="'" d="M-18 -82v1577h596v-1577h-596zM188 874h191v560h-191v-560z" />
<glyph unicode="(" horiz-adv-x="708" d="M-8 -307v1802h725v-1802h-725zM111 598q0 -506 503 -889l64 98q-297 283 -297 791t297 791l-64 98q-504 -383 -503 -889z" />
<glyph unicode=")" horiz-adv-x="708" d="M-8 -307v1802h725v-1802h-725zM31 -201l63 -98q504 383 504 889t-504 889l-63 -99q297 -283 297 -790q0 -508 -297 -791z" />
<glyph unicode="*" horiz-adv-x="708" d="M-16 799v696h741v-696h-741zM49 1155l189 -59l-117 -168l117 -86l120 172l121 -172l121 86l-121 168l189 59l-47 137l-189 -59v201h-149v-201l-191 59z" />
<glyph unicode="+" horiz-adv-x="1105" d="M-20 -82v1167h1146v-1167h-1146zM53 410h410v-410h201v410h409v200h-409v408h-201v-408h-410v-200z" />
<glyph unicode="," d="M-18 -328v676h596v-676h-596zM150 0h116v-61q0 -88 -102 -99v-123q256 37 256 230v332h-270v-279z" />
<glyph unicode="-" horiz-adv-x="669" d="M-18 369v430h706v-430h-706zM86 475h502v225h-502v-225z" />
<glyph unicode="." d="M-16 -82v430h591v-430h-591zM150 0h270v279h-270v-279z" />
<glyph unicode="/" horiz-adv-x="931" d="M-16 -82v1577h964v-1577h-964zM23 -37h219l680 1507h-220z" />
<glyph unicode="0" horiz-adv-x="1120" d="M-25 -82v1577h1170v-1577h-1170zM55 684q0 -299 99 -479q127 -229 401 -230q274 0 401 230q99 180 99 479t-99 479q-127 229 -401 230q-274 0 -401 -230q-98 -180 -99 -479zM326 684q0 197 28 301q53 182 201 182q145 0 199 -182q30 -104 30 -301q0 -481 -229 -481 q-147 0 -201 180q-29 104 -28 301z" />
<glyph unicode="1" horiz-adv-x="780" d="M-14 -82v1577h809v-1577h-809zM68 952h184q150 0 149 -145v-807h246v1370h-203q-33 -158 -127 -211q-74 -43 -247 -43z" />
<glyph unicode="2" horiz-adv-x="1120" d="M-20 -82v1577h1161v-1577h-1161zM96 0h926v213h-592q127 102 256 207q147 127 221 239q94 147 94 310q0 195 -118.5 310.5t-313.5 115.5q-238 0 -360 -152q-113 -137 -113 -381v2l246 -18q-4 311 195 311q184 0 184 -211q0 -188 -229 -422q-172 -176 -396 -311v-213z" />
<glyph unicode="3" horiz-adv-x="1120" d="M-25 -82v1577h1170v-1577h-1170zM82 387q-2 -201 133 -309q125 -102 332 -103q207 0 344 105q149 114 149 317q0 129 -67.5 218.5t-192.5 117.5v6q225 55 226 287q0 176 -132 274q-117 92 -296 93q-201 0 -327 -103.5t-157 -302.5l268 -55q20 236 195 235q84 0 132 -50 t48 -134q0 -109 -94 -139q-47 -14 -184 -15v-213q152 0 209 -26q90 -43 90 -178q0 -94 -55.5 -151.5t-147.5 -57.5q-111 0 -169 65.5t-58 177.5l-246 -47v-12z" />
<glyph unicode="4" horiz-adv-x="1120" d="M-25 -82v1577h1170v-1577h-1170zM45 313h606v-313h244v313h172v215h-172v842h-250l-600 -866v-191zM301 528l346 551h4v-551h-350z" />
<glyph unicode="5" horiz-adv-x="1120" d="M-25 -82v1577h1170v-1577h-1170zM61 379q8 -197 148 -303q127 -100 330 -101q225 0 367.5 136.5t142.5 361.5q0 207 -111 334q-117 135 -320 135q-137 0 -245 -96l41 284h530l27 240h-766l-96 -754l233 -18q55 131 197 131q227 0 227 -258q0 -119 -51 -195 q-59 -88 -172 -88q-88 0 -142.5 61.5t-56.5 149.5z" />
<glyph unicode="6" horiz-adv-x="1120" d="M-25 -82v1577h1170v-1577h-1170zM84 651q0 -676 485 -676q197 0 328 127t131 324t-102 319q-109 133 -301 134q-182 0 -269 -127h-4q0 158 43 264q63 152 197 151q70 0 115 -44t49 -113v2l258 32q-27 168 -137.5 258.5t-282.5 90.5q-272 0 -406 -248q-104 -197 -104 -494 zM373 424q0 102 49 164.5t149 62.5q98 0 148.5 -62.5t50.5 -162.5q0 -102 -47 -162q-53 -66 -152 -65q-98 0 -151 65q-47 59 -47 160z" />
<glyph unicode="7" horiz-adv-x="1120" d="M-25 -82v1577h1170v-1577h-1170zM115 1120h610q-428 -532 -502 -1118l330 -2q23 291 145 610q136 353 320 535v225h-903v-250z" />
<glyph unicode="8" horiz-adv-x="1120" d="M-25 -82v1577h1170v-1577h-1170zM47 397q0 -203 158 -317q141 -104 352 -105q209 0 350 105q158 114 158 317q0 215 -209 318q74 39 121 112.5t47 157.5q0 203 -137 309q-123 98 -332 99q-209 0 -332 -97q-137 -109 -137 -309q0 -84 46 -157.5t122 -112.5 q-207 -106 -207 -320zM328 395q0 195 227 195t227 -197q0 -195 -227 -194q-227 0 -227 196zM356 983q0 182 201 182q199 0 199 -180q0 -182 -201 -182q-199 0 -199 180z" />
<glyph unicode="9" horiz-adv-x="1120" d="M-25 -82v1577h1170v-1577h-1170zM84 942q0 -197 100 -319q111 -131 303 -131q182 0 271 126h4q0 -156 -45 -264q-63 -152 -195 -151q-72 0 -116 43t-48 112l-260 -34q27 -168 137.5 -258.5t282.5 -90.5q272 0 406 248q106 195 106 494q0 678 -487 678q-197 0 -328 -128 t-131 -325zM342 942q0 100 50 162.5t149 62.5q96 0 147 -62.5t51 -162.5h2q0 -100 -49 -160q-53 -66 -149 -65q-100 0 -150.5 62.5t-50.5 162.5z" />
<glyph unicode=":" d="M-16 -82v1147h591v-1147h-591zM150 0h270v279h-270v-279zM150 754h270v276h-270v-276z" />
<glyph unicode=";" horiz-adv-x="450" d="M-20 -328v1393h491v-1393h-491zM104 0h117v-61q0 -88 -102 -99v-123q256 37 256 230v332h-271v-279zM104 754h271v276h-271v-276z" />
<glyph unicode="&#x3c;" horiz-adv-x="1208" d="M-20 -82v1188h1249v-1188h-1249zM94 432l1020 -448v213l-747 313l747 311v213l-1020 -448v-154z" />
<glyph unicode="=" horiz-adv-x="1064" d="M-92 -82v1147h1249v-1147h-1249zM23 197h1019v202h-1019v-202zM23 621h1019v200h-1019v-200z" />
<glyph unicode="&#x3e;" horiz-adv-x="1208" d="M-20 -82v1188h1249v-1188h-1249zM94 -16l1020 448v154l-1020 448v-213l748 -311l-748 -313v-213z" />
<glyph unicode="?" horiz-adv-x="1155" d="M-20 -82v1577h1196v-1577h-1196zM80 993l246 -35q4 119 59 191q61 82 176 82q88 0 151.5 -54.5t63.5 -142.5q0 -102 -82 -164q-145 -113 -149 -116q-78 -92 -78 -273v-112h225q0 168 94 266q88 72 177 145q96 96 96 262q0 193 -148 314q-135 113 -331 112 q-221 0 -356.5 -127t-143.5 -348zM444 -2h271v278h-271v-278z" />
<glyph unicode="@" horiz-adv-x="1609" d="M-20 -266v1638h1650v-1638h-1650zM76 547q0 -330 217 -543t547 -213q412 0 626 334h-157q-164 -180 -461 -180q-256 0 -425 169t-169 427q0 256 165 430t421 174q231 0 383 -131q158 -139 157 -367q0 -127 -61 -244q-74 -139 -189 -135q-18 18 -18 70v364q0 256 -330 256 q-139 0 -211 -71q-63 -61 -98 -205l156 -10q-2 164 153 164q90 0 131 -29q47 -35 48 -123v-61q-238 -12 -334 -45q-188 -66 -189 -240q0 -100 80 -164.5t182 -64.5q162 0 279 116q25 -102 139 -102q184 0 307 192q109 170 109 365q0 270 -215 448q-203 168 -479 168 q-315 0 -539.5 -217t-224.5 -532zM600 346q0 88 143 131q61 20 218 39l2 -84q0 -92 -61.5 -145.5t-156.5 -53.5q-143 0 -143 113h-2z" />
<glyph unicode="A" horiz-adv-x="1492" d="M-23 -82v1577h1539v-1577h-1539zM74 358q0 -176 147 -295q136 -108 317 -108h3q301 0 508 213q45 -190 247 -191q74 0 164 25l2 205h-88q-92 0 -92 149v666q0 240 -182 356q-152 96 -406 97q-229 0 -340 -80q-125 -86 -213 -336l2 -10l236 -68q45 156 104 215 q68 68 209 68q166 0 238 -56q86 -63 86 -225v-113q-430 -25 -602 -84q-340 -115 -340 -428zM356 375q0 162 260 241q98 31 400 70v-154q0 -170 -112.5 -269t-282.5 -99q-111 0 -183 49q-82 57 -82 162z" />
<glyph unicode="B" horiz-adv-x="1343" d="M-25 -82v1577h1393v-1577h-1393zM127 0h610q260 0 391 82q164 102 164 346q0 137 -87 238.5t-222 115.5v4q113 20 177.5 97.5t64.5 191.5q0 176 -127 273q-115 86 -295 86h-676v-1434zM397 238v417h348q263 0 263 -219q0 -198 -260 -198h-3h-348zM397 858v363h320 q227 -1 227 -179q0 -186 -227 -186z" />
<glyph unicode="C" horiz-adv-x="1378" d="M-18 -82v1577h1415v-1577h-1415zM84 717q0 -328 174 -533q188 -219 510 -219q424 0 592 426l-244 113q-90 -291 -348 -291q-199 0 -309 158q-94 137 -94 344t94 346q111 158 309 158q121 0 210 -74t107 -193l261 66q-49 215 -202 333.5t-374 118.5q-309 0 -504 -225 q-182 -213 -182 -528z" />
<glyph unicode="D" horiz-adv-x="1417" d="M-18 -82v1577h1454v-1577h-1454zM133 0h553q332 0 498 197q157 184 157 520q0 340 -183 528.5t-521 188.5h-504v-1434zM403 250v934h240q416 0 416 -467q0 -242 -84 -348q-94 -121 -328 -121z" />
<glyph unicode="E" horiz-adv-x="1552" d="M-23 -82v1577h1598v-1577h-1598zM86 705q0 -319 180 -531q190 -223 504 -223q242 0 434 131q209 143 248 375l-268 35q-6 -141 -129 -238q-117 -88 -262 -88q-199 0 -312 143q-104 131 -104 336l1083 8q4 78 4 123q0 313 -185 507t-497 194q-348 0 -528 -215 q-168 -201 -168 -557zM375 866h799v-2q-27 180 -130 285q-110 108 -285 108h-3q-162 0 -267 -116q-98 -109 -114 -275z" />
<glyph unicode="F" horiz-adv-x="1081" d="M-23 -82v1577h1127v-1577h-1127zM129 0h270v604h588v238h-588v342h631v250h-901v-1434z" />
<glyph unicode="G" horiz-adv-x="1490" d="M-23 -82v1577h1536v-1577h-1536zM78 717q0 -326 176 -533q186 -219 508 -219q236 0 379 158l-2 -123h233v782h-600v-237h356q-2 -143 -111.5 -237.5t-254.5 -94.5q-199 0 -307 158q-96 137 -97 344q0 207 97 346q109 158 307 158q276 0 360 -271v-2l250 103 q-78 203 -235.5 311t-372.5 108q-309 0 -504 -223q-182 -213 -182 -528z" />
<glyph unicode="H" horiz-adv-x="1417" d="M-18 -82v1577h1454v-1577h-1454zM133 0h270v647h615v-647h270v1434h-270v-539h-615v539h-270v-1434z" />
<glyph unicode="I" d="M-20 -82v1577h593v-1577h-593zM145 0h271v1434h-271v-1434z" />
<glyph unicode="J" horiz-adv-x="782" d="M-18 -82v1577h819v-1577h-819zM27 -18q94 -16 178 -17q180 0 297 80q137 90 137 262h2v1127h-270v-1024q0 -184 -230 -185q-74 0 -114 17v-260z" />
<glyph unicode="K" horiz-adv-x="1304" d="M-25 -82v1577h1354v-1577h-1354zM129 0h270v412l230 258l436 -729l254 59l-502 891l469 543l-266 39l-621 -685v646h-270v-1434z" />
<glyph unicode="L" horiz-adv-x="1007" d="M-18 -82v1577h1044v-1577h-1044zM133 0h852v250h-582v1184h-270v-1434z" />
<glyph unicode="M" horiz-adv-x="2324" d="M-27 -82v1577h2378v-1577h-2378zM174 -10h266v948q0 133 107 215q98 74 237 74q242 0 242 -271v-966h266v948q0 135 107 217q100 74 239 74q240 0 240 -273v-966h266v954q0 246 -112 383q-123 147 -363 148q-121 0 -244 -70q-111 -66 -188 -168q-57 115 -176 178 q-111 59 -244 60q-223 0 -395 -215v180h-248v-1450z" />
<glyph unicode="N" horiz-adv-x="1552" d="M-23 -82v1577h1598v-1577h-1598zM176 -10h266v872q0 168 102.5 267.5t270.5 99.5q291 0 291 -311v-928h264v952q0 535 -514 535q-250 0 -414 -238v201h-266v-1450z" />
<glyph unicode="O" horiz-adv-x="1529" d="M-25 -82v1577h1579v-1577h-1579zM78 717q0 -315 180 -529q193 -225 504 -225q309 0 504 225q184 214 184 529q0 313 -184 526q-195 225 -502 225q-311 0 -504 -223q-182 -213 -182 -528zM358 715q0 207 95 346q111 158 309 158q199 0 307 -156q98 -137 98 -344t-96 -346 q-111 -158 -307 -158q-201 0 -309 156q-96 137 -97 344z" />
<glyph unicode="P" horiz-adv-x="1230" d="M-20 -82v1577h1271v-1577h-1271zM127 0h270v483q276 0 369 11q203 25 305 116q127 111 127 340t-136 356.5t-366 127.5h-569v-1434zM397 709v499h258q260 0 260 -258q0 -115 -68.5 -178t-182.5 -63h-267z" />
<glyph unicode="Q" horiz-adv-x="1529" d="M-20 -82v1577h1576v-1597l205 -308h-491l-287 328h-1003zM80 715q0 -287 194 -514q203 -240 486 -240l2 -2q143 4 309 61l322 -360l163 94l-284 426h-8q186 217 186 535q0 315 -182 526q-193 225 -502 225t-504 -223q-182 -213 -182 -528zM360 715q0 207 97 346 q109 158 307 158q199 0 309 -156q96 -137 96 -344t-96 -346q-109 -158 -307 -158q-199 0 -309 156q-96 137 -97 344z" />
<glyph unicode="R" horiz-adv-x="1267" d="M-23 -82v1577h1313v-1577h-1313zM131 0h270v528h256l340 -596l252 68l-321 578q282 102 282 419q0 208 -141 326q-131 111 -340 111h-598v-1434zM401 766v430h254q275 0 275 -215q0 -100 -66.5 -158.5t-169.5 -58.5z" />
<glyph unicode="S" horiz-adv-x="1304" d="M-25 -82v1577h1354v-1577h-1354zM-4 266q100 -145 274 -227q162 -76 348 -76q254 0 424 105q203 126 203 366q0 242 -229 346q-55 27 -426 111q-229 53 -230 170q0 86 99 129q74 31 174 31q266 0 375 -207l225 168q-218 286 -595 286h-3q-223 0 -379 -108 q-178 -123 -178 -336q0 -233 229 -338q43 -20 426 -115q231 -57 232 -174q0 -98 -111 -147q-82 -35 -195 -35q-287 0 -432 215z" />
<glyph unicode="T" horiz-adv-x="1083" d="M-27 -82v1577h1137v-1577h-1137zM10 1184h393v-1184h269v1184h393v250h-1055v-250z" />
<glyph unicode="U" horiz-adv-x="1417" d="M-23 -82v1577h1463v-1577h-1463zM131 440q0 -231 178 -360q158 -115 400 -115t399 115q178 127 178 360v994h-270v-922q0 -287 -307 -287t-308 287v922h-270v-994z" />
<glyph unicode="V" horiz-adv-x="1196" d="M-23 -82v1577h1242v-1577h-1242zM-4 1434l420 -1434h360l420 1434h-283l-315 -1143h-4l-315 1143h-283z" />
<glyph unicode="W" horiz-adv-x="1679" d="M-20 -82v1577h1720v-1577h-1720zM18 1434l293 -1434h316l211 1030h4l211 -1030h315l293 1434h-272l-191 -1108h-4l-211 1108h-270l-217 -1121h-9l-196 1121h-273z" />
<glyph unicode="X" horiz-adv-x="1304" d="M-20 -82v1577h1345v-1577h-1345zM14 0l275 -55l366 590l355 -594l284 59l-479 774l410 660l-295 39l-275 -455l-276 455l-295 -39l410 -660z" />
<glyph unicode="Y" horiz-adv-x="1267" d="M-20 -82v1577h1308v-1577h-1308zM23 1434l477 -875v-559h270v559l477 875h-301l-311 -592l-313 592h-299z" />
<glyph unicode="Z" horiz-adv-x="1193" d="M-18 -82v1577h1230v-1577h-1230zM41 0h1116v238h-770l770 958v238h-1051v-238h707l-772 -958v-238z" />
<glyph unicode="[" horiz-adv-x="708" d="M-8 -307v1802h725v-1802h-725zM90 -225h531v200h-273v1258h273v201h-531v-1659z" />
<glyph unicode="\" horiz-adv-x="931" d="M-10 -307v1802h952v-1802h-952zM16 1470l680 -1507h219l-679 1507h-220z" />
<glyph unicode="]" horiz-adv-x="708" d="M-8 -307v1802h725v-1802h-725zM90 -25v-200h531v1659h-531v-201h272v-1258h-272z" />
<glyph unicode="^" horiz-adv-x="1208" d="M115 555l401 815h176l402 -815h-211l-279 575l-278 -575h-211z" />
<glyph unicode="_" horiz-adv-x="1007" d="M0 -530h1008v-101h-1008v101z" />
<glyph unicode="`" horiz-adv-x="485" d="M16 1434h271l184 -291h-168z" />
<glyph unicode="a" horiz-adv-x="1492" d="M-23 -82v1577h1539v-1577h-1539zM74 358q0 -176 147 -295q136 -108 317 -108h3q301 0 508 213q45 -190 247 -191q74 0 164 25l2 205h-88q-92 0 -92 149v666q0 240 -182 356q-152 96 -406 97q-229 0 -340 -80q-125 -86 -213 -336l2 -10l236 -68q45 156 104 215 q68 68 209 68q166 0 238 -56q86 -63 86 -225v-113q-430 -25 -602 -84q-340 -115 -340 -428zM356 375q0 162 260 241q98 31 400 70v-154q0 -170 -112.5 -269t-282.5 -99q-111 0 -183 49q-82 57 -82 162z" />
<glyph unicode="b" horiz-adv-x="1343" d="M-25 -82v1577h1393v-1577h-1393zM127 0h610q260 0 391 82q164 102 164 346q0 137 -87 238.5t-222 115.5v4q113 20 177.5 97.5t64.5 191.5q0 176 -127 273q-115 86 -295 86h-676v-1434zM397 238v417h348q263 0 263 -219q0 -198 -260 -198h-3h-348zM397 858v363h320 q227 -1 227 -179q0 -186 -227 -186z" />
<glyph unicode="c" horiz-adv-x="1378" d="M-18 -82v1577h1415v-1577h-1415zM84 717q0 -328 174 -533q188 -219 510 -219q424 0 592 426l-244 113q-90 -291 -348 -291q-199 0 -309 158q-94 137 -94 344t94 346q111 158 309 158q121 0 210 -74t107 -193l261 66q-49 215 -202 333.5t-374 118.5q-309 0 -504 -225 q-182 -213 -182 -528z" />
<glyph unicode="d" horiz-adv-x="1417" d="M-18 -82v1577h1454v-1577h-1454zM133 0h553q332 0 498 197q157 184 157 520q0 340 -183 528.5t-521 188.5h-504v-1434zM403 250v934h240q416 0 416 -467q0 -242 -84 -348q-94 -121 -328 -121z" />
<glyph unicode="e" horiz-adv-x="1552" d="M-23 -82v1577h1598v-1577h-1598zM86 705q0 -319 180 -531q190 -223 504 -223q242 0 434 131q209 143 248 375l-268 35q-6 -141 -129 -238q-117 -88 -262 -88q-199 0 -312 143q-104 131 -104 336l1083 8q4 78 4 123q0 313 -185 507t-497 194q-348 0 -528 -215 q-168 -201 -168 -557zM375 866h799v-2q-27 180 -130 285q-110 108 -285 108h-3q-162 0 -267 -116q-98 -109 -114 -275z" />
<glyph unicode="f" horiz-adv-x="1081" d="M-23 -82v1577h1127v-1577h-1127zM129 0h270v604h588v238h-588v342h631v250h-901v-1434z" />
<glyph unicode="g" horiz-adv-x="1490" d="M-23 -82v1577h1536v-1577h-1536zM78 717q0 -326 176 -533q186 -219 508 -219q236 0 379 158l-2 -123h233v782h-600v-237h356q-2 -143 -111.5 -237.5t-254.5 -94.5q-199 0 -307 158q-96 137 -97 344q0 207 97 346q109 158 307 158q276 0 360 -271v-2l250 103 q-78 203 -235.5 311t-372.5 108q-309 0 -504 -223q-182 -213 -182 -528z" />
<glyph unicode="h" horiz-adv-x="1417" d="M-18 -82v1577h1454v-1577h-1454zM133 0h270v647h615v-647h270v1434h-270v-539h-615v539h-270v-1434z" />
<glyph unicode="i" d="M-18 -82v1577h596v-1577h-596zM150 0h270v1434h-270v-1434z" />
<glyph unicode="j" horiz-adv-x="782" d="M-18 -82v1577h819v-1577h-819zM27 -18q94 -16 178 -17q180 0 297 80q137 90 137 262h2v1127h-270v-1024q0 -184 -230 -185q-74 0 -114 17v-260z" />
<glyph unicode="k" horiz-adv-x="1304" d="M-25 -82v1577h1354v-1577h-1354zM129 0h270v412l230 258l436 -729l254 59l-502 891l469 543l-266 39l-621 -685v646h-270v-1434z" />
<glyph unicode="l" horiz-adv-x="1007" d="M-18 -82v1577h1044v-1577h-1044zM133 0h852v250h-582v1184h-270v-1434z" />
<glyph unicode="m" horiz-adv-x="2324" d="M-27 -82v1577h2378v-1577h-2378zM174 -10h266v948q0 133 107 215q98 74 237 74q242 0 242 -271v-966h266v948q0 135 107 217q100 74 239 74q240 0 240 -273v-966h266v954q0 246 -112 383q-123 147 -363 148q-121 0 -244 -70q-111 -66 -188 -168q-57 115 -176 178 q-111 59 -244 60q-223 0 -395 -215v180h-248v-1450z" />
<glyph unicode="n" horiz-adv-x="1552" d="M-23 -82v1577h1598v-1577h-1598zM176 -10h266v872q0 168 102.5 267.5t270.5 99.5q291 0 291 -311v-928h264v952q0 535 -514 535q-250 0 -414 -238v201h-266v-1450z" />
<glyph unicode="o" horiz-adv-x="1529" d="M-25 -82v1577h1579v-1577h-1579zM78 717q0 -315 180 -529q193 -225 504 -225q309 0 504 225q184 214 184 529q0 313 -184 526q-195 225 -502 225q-311 0 -504 -223q-182 -213 -182 -528zM358 715q0 207 95 346q111 158 309 158q199 0 307 -156q98 -137 98 -344t-96 -346 q-111 -158 -307 -158q-201 0 -309 156q-96 137 -97 344z" />
<glyph unicode="p" horiz-adv-x="1230" d="M-20 -82v1577h1271v-1577h-1271zM127 0h270v483q276 0 369 11q203 25 305 116q127 111 127 340t-136 356.5t-366 127.5h-569v-1434zM397 709v499h258q260 0 260 -258q0 -115 -68.5 -178t-182.5 -63h-267z" />
<glyph unicode="q" horiz-adv-x="1529" d="M-25 -82v1577h1579v-1905h-512l-2 328h-1065zM78 715q0 -287 192 -514q203 -240 488 -240l2 -2q143 4 309 61l262 -387l164 97l-225 450h-8q186 217 186 535q0 315 -182 526q-193 225 -502 225q-311 0 -504 -223q-182 -213 -182 -528zM358 715q0 207 95 346 q111 158 309 158q199 0 307 -156q98 -137 98 -344t-96 -346q-111 -158 -307 -158q-201 0 -309 156q-96 137 -97 344z" />
<glyph unicode="r" horiz-adv-x="1267" d="M-23 -82v1577h1313v-1577h-1313zM131 0h270v528h256l340 -596l252 68l-321 578q282 102 282 419q0 208 -141 326q-131 111 -340 111h-598v-1434zM401 766v430h254q275 0 275 -215q0 -100 -66.5 -158.5t-169.5 -58.5z" />
<glyph unicode="s" horiz-adv-x="1304" d="M-25 -82v1577h1354v-1577h-1354zM-4 266q100 -145 274 -227q162 -76 348 -76q254 0 424 105q203 126 203 366q0 242 -229 346q-55 27 -426 111q-229 53 -230 170q0 86 99 129q74 31 174 31q266 0 375 -207l225 168q-218 286 -595 286h-3q-223 0 -379 -108 q-178 -123 -178 -336q0 -233 229 -338q43 -20 426 -115q231 -57 232 -174q0 -98 -111 -147q-82 -35 -195 -35q-287 0 -432 215z" />
<glyph unicode="t" horiz-adv-x="1083" d="M-27 -82v1577h1137v-1577h-1137zM10 1184h393v-1184h269v1184h393v250h-1055v-250z" />
<glyph unicode="u" horiz-adv-x="1417" d="M-23 -82v1577h1463v-1577h-1463zM131 440q0 -231 178 -360q158 -115 400 -115t399 115q178 127 178 360v994h-270v-922q0 -287 -307 -287t-308 287v922h-270v-994z" />
<glyph unicode="v" horiz-adv-x="1196" d="M-23 -82v1577h1242v-1577h-1242zM-4 1434l420 -1434h360l420 1434h-283l-315 -1143h-4l-315 1143h-283z" />
<glyph unicode="w" horiz-adv-x="1679" d="M-20 -82v1577h1720v-1577h-1720zM18 1434l293 -1434h316l211 1030h4l211 -1030h315l293 1434h-272l-191 -1108h-4l-211 1108h-270l-217 -1121h-9l-196 1121h-273z" />
<glyph unicode="x" horiz-adv-x="1304" d="M-20 -82v1577h1345v-1577h-1345zM14 0l275 -55l366 590l355 -594l284 59l-479 774l410 660l-295 39l-275 -455l-276 455l-295 -39l410 -660z" />
<glyph unicode="y" horiz-adv-x="1267" d="M-20 -82v1577h1308v-1577h-1308zM23 1434l477 -875v-559h270v559l477 875h-301l-311 -592l-313 592h-299z" />
<glyph unicode="z" horiz-adv-x="1193" d="M-18 -82v1577h1230v-1577h-1230zM41 0h1116v238h-770l770 958v238h-1051v-238h707l-772 -958v-238z" />
<glyph unicode="{" horiz-adv-x="708" d="M-8 -307v1802h725v-1802h-725zM72 535q141 0 141 -185v-342q0 -133 63 -186q57 -47 195 -47h166v141q-98 -2 -123 6q-55 18 -55 101v354q0 193 -183 225v4q188 33 189 262q0 43 -8 128t-8 128q0 106 43 142q35 27 145 26v142h-166q-137 0 -195 -48q-63 -53 -63 -186v-342 q0 -184 -141 -184v-139z" />
<glyph unicode="|" horiz-adv-x="446" d="M-8 -307v1802h479v-1802h-479zM123 -37h201v1507h-201v-1507z" />
<glyph unicode="}" horiz-adv-x="708" d="M-8 -307v1802h725v-1802h-725zM74 -84v-141h164q135 0 192 47q66 53 66 186v342q0 185 141 185v139q-141 0 -141 184v342q0 133 -66 186q-57 47 -192 48h-164v-142q98 0 121 -8q55 -20 55 -100v-353q0 -193 182 -225l2 -4q-190 -33 -190 -262q0 -43 8 -128t8 -128 q0 -109 -45 -141q-37 -27 -141 -27z" />
<glyph unicode="~" horiz-adv-x="1208" d="M139 504q88 174 252 174q80 0 226.5 -67.5t207.5 -67.5q76 0 172 143l72 -172q-88 -174 -252 -174q-80 0 -227.5 68.5t-206.5 68.5q-78 0 -172 -145z" />
<glyph unicode="&#xa0;" horiz-adv-x="450" d="M-20 -82v1577h491v-1577h-491z" />
<glyph unicode="&#xa1;" horiz-adv-x="524" d="M-25 -102v1597h574v-1597h-574zM123 6h270v555q0 104 -31 256q-25 125 -49 252l-112 2q-2 -8 -49 -254q-29 -154 -29 -256v-555zM123 1161h270v277h-270v-277z" />
<glyph unicode="&#xa2;" horiz-adv-x="1120" d="M-18 -307v1638h1157v-1638h-1157zM70 510q0 -207 113.5 -354.5t314.5 -180.5v-225h164v225q121 14 225 107q92 84 145 205l-209 112q-51 -141 -161 -184v590q109 -35 145 -150l215 99q-109 264 -360 290v224h-164v-226q-201 -29 -314.5 -177t-113.5 -355zM328 510 q0 94 44 175t126 114v-580q-82 33 -129 119q-41 76 -41 172z" />
<glyph unicode="&#xa3;" horiz-adv-x="1120" d="M-18 -307v1802h1157v-1802h-1157zM41 193q0 -92 58.5 -148.5t150.5 -56.5q129 0 227 114q184 -127 314 -127q152 0 221 158q51 115 51 291v10h-258q0 -209 -92 -209q-29 0 -142 56q27 74 27 157q0 23 -10 115h180v190h-244q-8 16 -69 131q-41 78 -41 138q0 74 47 114.5 t123 40.5q182 0 182 -198q0 -39 -10 -86l268 2q0 254 -98 375q-109 133 -357 133q-188 0 -301 -86q-123 -96 -123 -279q0 -131 121 -283l-157 -2v-190h274q25 -72 25 -188q-86 41 -170 41t-140.5 -65t-56.5 -148zM180 184q0 57 56 58q51 -1 112 -58q-41 -55 -104 -55t-64 55 z" />
<glyph unicode="&#xa4;" horiz-adv-x="1515" d="M-20 -102v1597h1556v-1597h-1556zM57 516h170q51 -256 227.5 -403.5t436.5 -147.5q424 0 592 426l-244 113q-90 -291 -348 -291q-287 0 -377 303h563v135h-588q-2 33 -2 64q0 43 5 86h585v135h-555q94 283 369 283q121 0 211 -74t106 -193l260 66q-49 215 -201.5 333.5 t-373.5 118.5q-246 0 -422 -146t-238 -388h-176v-135h154q-6 -72 -2 -150h-152v-135z" />
<glyph unicode="&#xa5;" horiz-adv-x="1120" d="M-23 -102v1597h1166v-1597h-1166zM6 1370l318 -594h-205v-164h295l18 -37v-118h-313v-164h313v-293h246v293h315v164h-315v118l20 37h295v164h-207l320 594h-246l-305 -582l-303 582h-246z" />
<glyph unicode="&#xa6;" horiz-adv-x="446" d="M123 -37v590h201v-590h-201zM123 881v589h201v-589h-201z" />
<glyph unicode="&#xa7;" horiz-adv-x="1120" d="M-18 -307v1802h1157v-1802h-1157zM43 614q0 -160 170 -280q68 -47 317 -162q170 -78 170 -137q0 -53 -69 -78q-51 -18 -117 -18q-133 0 -281 106l-120 -184q209 -123 415 -123q172 0 297 78q145 90 146 252q0 145 -129 227q217 116 217 315q0 160 -170 279 q-63 43 -320 164q-170 80 -170 143q0 72 131 72q115 0 304 -90v2l108 194q-215 96 -422 96q-154 0 -260 -73q-121 -84 -121 -232q0 -141 133 -231q-229 -92 -229 -320zM270 668q0 125 150 168l297 -150q117 -59 117 -137q0 -125 -152 -172v2l-295 149q-117 59 -117 140z" />
<glyph unicode="&#xa8;" horiz-adv-x="485" d="M-47 1167v226h225v-226h-225zM305 1167v226h227v-226h-227z" />
<glyph unicode="&#xa9;" horiz-adv-x="1609" d="M-18 -102v1597h1646v-1597h-1646zM51 717q0 -317 219 -535.5t537 -218.5q317 0 534.5 218.5t217.5 535.5t-218.5 535t-535.5 218t-535.5 -218t-218.5 -535zM242 717q0 248 159.5 424t405.5 176q244 0 403.5 -177t159.5 -423q0 -248 -158 -420q-164 -180 -407 -180 q-246 0 -404.5 176t-158.5 424zM395 717q0 -193 122 -323t312 -130q145 0 251.5 88.5t131.5 231.5h-178q-16 -156 -207 -156q-109 0 -178 90q-66 84 -65 197q0 123 59 207q68 96 184 96q76 0 134.5 -44t72.5 -118l178 2q-25 143 -131 227t-254 84q-197 0 -314.5 -127 t-117.5 -325z" />
<glyph unicode="&#xaa;" horiz-adv-x="702" d="M25 944q0 133 165 184q137 27 275 56v18q0 66 -127 66q-109 0 -105 -80l-178 6q0 104 97 158q80 43 192 43q170 0 240 -52q80 -59 80 -217q0 -43 -4.5 -128t-4.5 -128q0 -61 23 -104h-186l-15 57q-96 -72 -229 -71q-92 0 -157.5 51t-65.5 141zM213 952q0 -57 92 -57 q57 0 103 23q57 28 57 81v62q-74 -18 -146 -35q-106 -29 -106 -74z" />
<glyph unicode="&#xab;" horiz-adv-x="858" d="M98 440v295l291 228v-234l-170 -141l170 -142v-233zM469 440v295l291 228v-234l-170 -141l170 -142v-233z" />
<glyph unicode="&#xac;" horiz-adv-x="1208" d="M94 621v200h1020v-612h-203v412h-817z" />
<glyph unicode="&#xad;" horiz-adv-x="669" d="M-18 369v430h706v-430h-706zM86 475h502v225h-502v-225z" />
<glyph unicode="&#xae;" horiz-adv-x="1609" d="M-18 -102v1597h1646v-1597h-1646zM51 717q0 -317 219 -535.5t537 -218.5q317 0 534.5 218.5t217.5 535.5t-218.5 535t-535.5 218t-535.5 -218t-218.5 -535zM242 717q0 248 159.5 424t405.5 176q244 0 403.5 -177t159.5 -423q0 -248 -158 -420q-164 -180 -407 -180 q-246 0 -404.5 176t-158.5 424zM510 293h164v354h90l217 -354h176l-221 360q102 8 158.5 73t56.5 167q0 250 -313 250h-328v-850zM674 786v218h135q178 -1 178 -107q0 -113 -203 -113h-61q-35 2 -49 2z" />
<glyph unicode="&#xaf;" horiz-adv-x="485" d="M-47 1212v142h579v-142h-579z" />
<glyph unicode="&#xb0;" horiz-adv-x="804" d="M-23 717v778h850v-778h-850zM102 1104q0 -127 80 -207t209 -80q127 0 207 80t80 209t-81 209t-208 80l2 -2q-129 0 -209 -80t-80 -209zM242 1108q0 57 44 101t103 44q57 0 101.5 -45t44.5 -102t-45.5 -101t-102.5 -44h2q-59 0 -103 45t-44 102z" />
<glyph unicode="&#xb1;" horiz-adv-x="1208" d="M94 0v201h1020v-201h-1020zM94 545v203h410v270h201v-270h409v-203h-409v-271h-201v271h-410z" />
<glyph unicode="&#xb2;" horiz-adv-x="727" d="M49 643q0 43 21 66q8 8 84 59q143 98 192 145q106 102 107 203q0 113 -99 113q-102 0 -102 -164l-201 10q0 317 322 318q127 0 210 -65.5t83 -188.5q0 -135 -113 -246q-53 -53 -227 -168v-4h352v-166h-578q-51 0 -51 88z" />
<glyph unicode="&#xb3;" horiz-adv-x="727" d="M33 825h188q0 -55 38 -85.5t95 -30.5q127 0 127 110q0 66 -63 84q-35 10 -119 8v154q84 0 109 6q63 16 63 74q0 82 -106 82q-51 0 -85 -30t-34 -79l-197 33q43 242 330 242q115 0 196 -50q96 -59 97 -167q0 -139 -158 -175v-4q180 -34 180 -204q0 -127 -108 -195 q-90 -55 -226 -55q-147 0 -233 65q-94 74 -94 217z" />
<glyph unicode="&#xb4;" horiz-adv-x="485" d="M16 1143l185 291h268l-285 -291h-168z" />
<glyph unicode="&#xb6;" horiz-adv-x="1208" d="M-14 -307v1802h1237v-1802h-1237zM88 1059q0 -174 135 -273q119 -88 299 -88v-923h178v1505h232v-1505h176v1659h-545q-475 0 -475 -375z" />
<glyph unicode="&#xb7;" d="M127 618q0 61 45 107.5t107 46.5q61 0 107 -46.5t46 -107.5t-45 -107t-106 -46t-107.5 46t-46.5 107z" />
<glyph unicode="&#xb8;" horiz-adv-x="485" d="M16 -401l37 82q90 -31 133 -31q119 0 119 80q0 70 -98 69q-39 0 -72 -12l-43 37l133 176h97l-89 -115l3 -4q20 10 67 10q66 0 117 -43.5t51 -109.5q0 -94 -82 -146q-68 -45 -166 -45q-96 0 -207 52z" />
<glyph unicode="&#xb9;" horiz-adv-x="727" d="M164 1116v129q104 0 151 21q68 29 95 114h155v-825h-190v489q0 78 -105 78q-18 0 -54 -3t-52 -3z" />
<glyph unicode="&#xba;" horiz-adv-x="751" d="M27 1073q0 150 102 238q94 82 248 82q152 0 248 -82q100 -88 100 -238t-98.5 -235.5t-249.5 -85.5q-154 0 -252 85t-98 236zM215 1071q0 -68 48 -117t114 -49q68 0 113 51t45 119q0 66 -47.5 116t-110.5 50q-68 0 -115 -51t-47 -119z" />
<glyph unicode="&#xbb;" horiz-adv-x="858" d="M98 213v233l170 142l-170 141v234l291 -228v-295zM469 213v233l170 142l-170 141v234l291 -228v-295z" />
<glyph unicode="&#xbc;" horiz-adv-x="1679" d="M80 1116v129q104 0 151 21q70 29 95 114h155v-825h-188l-2 489q0 78 -103 78q-18 0 -54 -3t-54 -3zM287 -76l837 1522h174l-837 -1522h-174zM918 170v131l389 524h186v-503h106v-152h-106v-170h-188v170h-387zM1096 322h209v284h-5z" />
<glyph unicode="&#xbd;" horiz-adv-x="1679" d="M80 1116v129q104 0 151 21q70 29 95 114h155v-825h-188l-2 489q0 78 -103 78q-18 0 -54 -3t-54 -3zM266 -76l838 1522h174l-838 -1522h-174zM969 90q0 41 20 64q10 10 84 61q143 98 191 143q109 100 108 201q0 113 -98 113q-102 0 -103 -162l-200 10q0 317 323 318 q127 0 205 -64q88 -68 88 -190q0 -135 -112 -246q-53 -53 -228 -168v-4h352v-166h-579q-37 0 -47 31q-4 14 -4 59z" />
<glyph unicode="&#xbe;" horiz-adv-x="1679" d="M29 -82v1577h1536v-1577h-1536zM131 825q0 -143 94 -217q86 -66 234 -65q135 0 225 55q111 68 111 195q0 170 -181 204l-2 4q158 35 158 175q0 109 -96 167q-80 49 -195 50q-287 0 -329 -242l196 -33q-2 49 32 79t85 30q109 0 108 -82q0 -57 -63 -74q-27 -6 -109 -6v-154 q84 2 117 -8q66 -18 66 -84q0 -111 -127 -110q-57 0 -95 30.5t-38 85.5h-191zM455 -76h174l837 1522h-174zM969 170h387v-170h188v170h107v152h-107v503h-186l-389 -524v-131zM1147 322l205 284h4v-284h-209z" />
<glyph unicode="&#xbf;" horiz-adv-x="1155" d="M-37 -102v1597h1229v-1597h-1229zM72 397q0 -195 143 -315q137 -113 336 -113q219 0 354.5 129t145.5 348l-246 35q-6 -119 -60 -192q-63 -82 -176 -82q-90 0 -152.5 55t-62.5 144q0 102 80 163q143 109 148 113q82 94 82 274v115h-226q0 -168 -96 -266 q-88 -72 -176 -146q-94 -96 -94 -262zM416 1161h270v277h-270v-277z" />
<glyph unicode="&#xc0;" horiz-adv-x="1521" d="M80 352q0 307 334 422q168 57 592 82v113q0 158 -86 221q-72 53 -234 53q-281 0 -278 -289l-261 17v8q0 221 162 352q150 119 379 119q250 0 397 -94q180 -113 181 -350l2 -654q0 -70 12 -100q20 -47 80 -49l84 2v-203q-90 -25 -164 -25q-201 0 -246 187 q-203 -209 -495 -209q-180 0 -316 106q-143 117 -143 291zM342 1788h264l180 -285h-163zM356 369q0 -104 82 -160q70 -47 180 -47q168 0 275 94q115 98 115 264l-2 156q-297 -39 -394 -70q-256 -78 -256 -237z" />
<glyph unicode="&#xc1;" horiz-adv-x="1521" d="M80 352q0 307 334 422q168 57 592 82v113q0 158 -86 221q-72 53 -234 53q-281 0 -278 -289l-261 17v8q0 221 162 352q150 119 379 119q250 0 397 -94q180 -113 181 -350l2 -654q0 -70 12 -100q20 -47 80 -49l84 2v-203q-90 -25 -164 -25q-201 0 -246 187 q-203 -209 -495 -209q-180 0 -316 106q-143 117 -143 291zM356 369q0 -104 82 -160q70 -47 180 -47q168 0 275 94q115 98 115 264l-2 156q-297 -39 -394 -70q-256 -78 -256 -237zM575 1503l181 285h266l-281 -285h-166z" />
<glyph unicode="&#xc2;" horiz-adv-x="1521" d="M80 352q0 307 334 422q168 57 592 82v113q0 158 -86 221q-72 53 -234 53q-281 0 -278 -289l-261 17v8q0 221 162 352q150 119 379 119q250 0 397 -94q180 -113 181 -350l2 -654q0 -70 12 -100q20 -47 80 -49l84 2v-203q-90 -25 -164 -25q-201 0 -246 187 q-203 -209 -495 -209q-180 0 -316 106q-143 117 -143 291zM356 369q0 -104 82 -160q70 -47 180 -47q168 0 275 94q115 98 115 264l-2 156q-297 -39 -394 -70q-256 -78 -256 -237zM412 1503l213 285h221l211 -285h-183l-139 172l-141 -172h-182z" />
<glyph unicode="&#xc3;" horiz-adv-x="1521" d="M80 352q0 307 334 422q168 57 592 82v113q0 158 -86 221q-72 53 -234 53q-281 0 -278 -289l-261 17v8q0 221 162 352q150 119 379 119q250 0 397 -94q180 -113 181 -350l2 -654q0 -70 12 -100q20 -47 80 -49l84 2v-203q-90 -25 -164 -25q-201 0 -246 187 q-203 -209 -495 -209q-180 0 -316 106q-143 117 -143 291zM319 1522q12 90 62 157q59 78 143 78q55 0 147.5 -39t137.5 -39q74 0 98 86h111q-12 -90 -62 -157q-59 -78 -141 -78q-57 0 -149.5 39t-135.5 39q-78 0 -100 -86h-111zM356 369q0 -104 82 -160q70 -47 180 -47 q168 0 275 94q115 98 115 264l-2 156q-297 -39 -394 -70q-256 -78 -256 -237z" />
<glyph unicode="&#xc4;" horiz-adv-x="1495" d="M-47 -82v1577h385v287h696v-287h502v-1577h-1583zM55 358q0 -176 148 -295q137 -109 319 -108q301 0 508 213q45 -190 248 -191q74 0 164 25l2 205h-88q-92 0 -92 149v666q0 240 -183 356q-152 96 -405 97q-229 0 -340 -80q-125 -86 -213 -336l2 -10l235 -68 q45 156 105 215q68 68 209 68q166 0 237 -56q86 -63 86 -225v-113q-430 -25 -602 -84q-340 -115 -340 -428zM338 375q0 162 260 241q98 31 399 70v-154q0 -170 -112.5 -269t-282.5 -99q-111 0 -182 49q-82 57 -82 162zM401 1513h222v224h-222v-224zM748 1513h221v224h-221 v-224z" />
<glyph unicode="&#xc5;" horiz-adv-x="1507" d="M59 358q0 313 340 428q174 59 602 84v113q0 162 -83 225q-74 55 -240 56q-143 0 -213 -74q-57 -57 -100 -209l-236 68l-2 10q84 236 195 321q119 94 358 95q254 0 405 -97q182 -117 183 -356v-666q0 -150 92 -149h88l-2 -205q-88 -25 -164 -25q-203 0 -248 191 q-207 -213 -508 -213q-182 0 -319 108q-147 119 -148 295zM342 375q0 -104 82 -162q74 -49 182 -49q172 0 283.5 99t111.5 269v154q-295 -39 -397 -70q-262 -80 -262 -241zM477 1696q0 80 63.5 141t143.5 61h-2q82 0 143.5 -61t61.5 -143t-61.5 -142.5t-143.5 -60.5 t-143.5 61.5t-61.5 143.5zM569 1694q0 -45 35 -80t80 -35q47 0 81 34t34 81t-34 80.5t-81 33.5q-45 0 -80 -34.5t-35 -79.5z" />
<glyph unicode="&#xc6;" horiz-adv-x="2013" d="M-27 -102v1597h2067v-1597h-2067zM39 358q0 -176 147 -295q137 -109 320 -108q274 0 473 180v-135h979v250h-711q4 39 2 57v314h596v237h-596v326h690v250l-960 -2v-9q-129 51 -320 52q-227 0 -340 -80q-123 -86 -213 -336l3 -10l235 -68q47 156 105 215q70 68 208 68 q154 0 226 -47q84 -53 96 -185v-162q-428 -25 -600 -84q-340 -117 -340 -428zM322 375q0 162 260 241q100 31 397 70v-197q-14 -152 -124 -238.5t-269 -86.5q-111 0 -183 49q-82 57 -81 162z" />
<glyph unicode="&#xc7;" horiz-adv-x="1378" d="M61 707q0 307 183 516q190 221 493 221q217 0 367.5 -116t198.5 -327l-254 -65q-18 117 -106.5 190.5t-205.5 73.5q-197 0 -303 -153q-94 -137 -94 -340q0 -205 94 -340q106 -156 303 -156q254 0 340 285l242 -113q-166 -418 -582 -418q-317 0 -501 215 q-174 205 -175 527zM504 -434l35 80q90 -31 131 -31q117 0 116 78q0 72 -98 71q-37 0 -70 -12l-40 35l131 172h94l-88 -113l4 -4q20 10 63 11q66 0 117 -43t51 -109q0 -90 -80 -141q-70 -45 -163 -45q-94 0 -203 51z" />
<glyph unicode="&#xc8;" horiz-adv-x="1513" d="M78 690q0 348 166 547q176 215 518 215q305 0 489.5 -190.5t184.5 -497.5q0 -47 -4 -123l-1065 -8q-2 -201 100 -330q111 -139 307 -139q143 0 256 88q121 92 127 231l264 -34l-2 -11q-150 -485 -669 -485q-307 0 -496 217q-176 207 -176 520zM362 850l787 2 q-25 176 -127 278q-109 106 -283 107q-160 0 -264 -117q-96 -106 -113 -270zM446 1788h265l180 -285h-164z" />
<glyph unicode="&#xc9;" horiz-adv-x="1529" d="M86 690q0 348 166 547q176 215 518 215q305 0 489.5 -190.5t184.5 -497.5q0 -47 -4 -123l-1065 -8q-2 -201 100 -330q111 -139 307 -139q143 0 256 88q121 92 127 231l265 -34l-3 -11q-150 -485 -669 -485q-307 0 -496 217q-176 207 -176 520zM371 850l786 2 q-25 176 -127 278q-109 106 -282 107q-160 0 -265 -117q-96 -106 -112 -270zM633 1503l180 285h264l-280 -285h-164z" />
<glyph unicode="&#xca;" horiz-adv-x="1521" d="M82 690q0 348 166 547q176 215 518 215q305 0 489.5 -190.5t184.5 -497.5q0 -47 -4 -123l-1065 -8q-2 -201 100 -330q111 -139 307 -139q143 0 256 88q121 92 127 231l264 -34l-2 -11q-150 -485 -669 -485q-307 0 -496 217q-176 207 -176 520zM367 850l786 2 q-25 176 -127 278q-109 106 -283 107q-160 0 -264 -117q-96 -106 -112 -270zM424 1503l213 285h221l211 -285h-182l-139 172l-142 -172h-182z" />
<glyph unicode="&#xcb;" horiz-adv-x="1521" d="M82 690q0 348 166 547q176 215 518 215q305 0 489.5 -190.5t184.5 -497.5q0 -47 -4 -123l-1065 -8q-2 -201 100 -330q111 -139 307 -139q143 0 256 88q121 92 127 231l264 -34l-2 -11q-150 -485 -669 -485q-307 0 -496 217q-176 207 -176 520zM367 850l786 2 q-25 176 -127 278q-109 106 -283 107q-160 0 -264 -117q-96 -106 -112 -270zM477 1511v222h223v-222h-223zM823 1511v222h224v-222h-224z" />
<glyph unicode="&#xcc;" d="M57 1788h265l180 -285h-164zM219 0v1409h264v-1409h-264z" />
<glyph unicode="&#xcd;" d="M57 1503l181 285h266l-283 -285h-164zM74 0v1409h264v-1409h-264z" />
<glyph unicode="&#xce;" d="M-43 1503l211 285h223l211 -285h-182l-139 172l-142 -172h-182zM145 0v1409h265v-1409h-265z" />
<glyph unicode="&#xcf;" d="M-6 1526v223h225v-223h-225zM147 0v1409h265v-1409h-265zM344 1526v223h221v-223h-221z" />
<glyph unicode="&#xd0;" horiz-adv-x="1417" d="M37 655v191h137v588l555 -2q305 0 483 -207q170 -197 170 -508q0 -336 -157 -520q-168 -197 -498 -197h-553v655h-137zM444 250h244q233 0 328 119q84 106 84 348q0 467 -410 467h-246v-338h363v-191h-363v-405z" />
<glyph unicode="&#xd1;" horiz-adv-x="1474" d="M152 -10v1425h262v-198l-13 12q150 221 420 221q504 0 504 -524v-936h-260v913q0 305 -285 305q-168 0 -268 -97t-100 -263l2 -858h-262zM418 1522q12 90 61 157q59 78 144 78q55 0 147 -39t137 -39q74 0 99 86h110q-12 -90 -61 -157q-59 -78 -142 -78q-57 0 -149 39 t-135 39q-78 0 -101 -86h-110z" />
<glyph unicode="&#xd2;" horiz-adv-x="1529" d="M90 705q0 307 180 518q190 221 494 221q305 0 496 -219q180 -209 180 -520q0 -309 -180 -519q-190 -221 -494 -221q-305 0 -496 221q-180 209 -180 519zM367 707q0 -203 94 -338q109 -156 303 -156q195 0 303 154q94 135 94 338q0 205 -92 339q-106 156 -303 156 t-305 -153q-94 -135 -94 -340zM479 1792h264l181 -285h-164z" />
<glyph unicode="&#xd3;" horiz-adv-x="1529" d="M90 705q0 307 180 518q190 221 494 221q305 0 496 -219q180 -209 180 -520q0 -309 -180 -519q-190 -221 -494 -221q-305 0 -496 221q-180 209 -180 519zM367 707q0 -203 94 -338q109 -156 303 -156q195 0 303 154q94 135 94 338q0 205 -92 339q-106 156 -303 156 t-305 -153q-94 -135 -94 -340zM625 1507l180 285h266l-283 -285h-163z" />
<glyph unicode="&#xd4;" horiz-adv-x="1529" d="M90 705q0 307 180 518q190 221 494 221q305 0 496 -219q180 -209 180 -520q0 -309 -180 -519q-190 -221 -494 -221q-305 0 -496 221q-180 209 -180 519zM367 707q0 -203 94 -338q109 -156 303 -156q195 0 303 154q94 135 94 338q0 205 -92 339q-106 156 -303 156 t-305 -153q-94 -135 -94 -340zM453 1507l211 285h223l211 -285h-183l-139 172l-141 -172h-182z" />
<glyph unicode="&#xd5;" horiz-adv-x="1529" d="M90 705q0 307 180 518q190 221 494 221q305 0 496 -219q180 -209 180 -520q0 -309 -180 -519q-190 -221 -494 -221q-305 0 -496 221q-180 209 -180 519zM367 707q0 -203 94 -338q109 -156 303 -156q195 0 303 154q94 135 94 338q0 205 -92 339q-106 156 -303 156 t-305 -153q-94 -135 -94 -340zM424 1518q12 90 63 157q57 78 142 78q55 0 148 -39t136 -39q78 0 101 86h110q-12 -90 -63 -157q-57 -78 -141 -78q-55 0 -148.5 39t-136.5 39q-76 0 -98 -86h-113z" />
<glyph unicode="&#xd6;" horiz-adv-x="1529" d="M-27 -82v1577h437v287h696v-287h450v-1577h-1583zM86 705q0 -309 180 -519q190 -221 496 -221q303 0 493 221q181 210 181 519q0 311 -181 520q-190 219 -495 219q-303 0 -494 -221q-180 -211 -180 -518zM362 707q0 205 95 340q109 154 305 153q197 0 303 -156 q92 -134 92 -339q0 -203 -94 -338q-109 -154 -303 -154q-195 0 -303 156q-94 135 -95 338zM481 1530h221v223h-221v-223zM827 1530h222v223h-222v-223z" />
<glyph unicode="&#xd7;" horiz-adv-x="1208" d="M129 178l332 332l-332 334l141 141l334 -332l332 332l143 -141l-331 -334l331 -332l-143 -143l-332 334l-334 -334z" />
<glyph unicode="&#xd8;" horiz-adv-x="1527" d="M-25 -102v1597h1577v-1597h-1577zM31 190l129 -133l123 109q186 -203 479 -203q309 0 502 225q184 213 184 529q0 223 -98 401l139 125l-127 133l-121 -108q-190 203 -481 202q-309 0 -502 -225q-182 -215 -182 -528q0 -221 98 -398v-2zM354 717q0 207 95 346 q111 158 309 158q182 0 286 -121l-659 -588q-31 98 -31 205zM473 340h2l660 588q30 -102 30 -211q0 -205 -98 -344q-109 -156 -305 -156q-184 0 -289 123z" />
<glyph unicode="&#xd9;" horiz-adv-x="1417" d="M139 434l2 975h265v-907q0 -281 303 -281t303 281v907h266v-975q0 -229 -176 -356q-156 -113 -393 -113q-238 0 -394 113q-176 127 -176 356zM422 1788h266l180 -285h-166z" />
<glyph unicode="&#xda;" horiz-adv-x="1417" d="M139 434l2 975h265v-907q0 -281 303 -281t303 281v907h266v-975q0 -229 -176 -356q-156 -113 -393 -113q-238 0 -394 113q-176 127 -176 356zM569 1503l181 285h264l-281 -285h-164z" />
<glyph unicode="&#xdb;" horiz-adv-x="1417" d="M139 434l2 975h265v-907q0 -281 303 -281t303 281v907h266v-975q0 -229 -176 -356q-156 -113 -393 -113q-238 0 -394 113q-176 127 -176 356zM395 1503l213 285h221l213 -285h-182l-141 172l-141 -172h-183z" />
<glyph unicode="&#xdc;" horiz-adv-x="1417" d="M-27 -82v1577h396v287h696v-287h373v-1577h-1465zM133 434q0 -229 174 -356q158 -113 395 -113q236 0 394 113q176 127 176 356v975h-266v-907q0 -281 -304 -281q-303 0 -303 281v907h-264zM426 1526h221v223h-221v-223zM772 1526h221v223h-221v-223z" />
<glyph unicode="&#xdd;" horiz-adv-x="1267" d="M33 1409h295l305 -582l307 582h295l-469 -858v-551h-264v551zM492 1503l180 285h266l-283 -285h-163z" />
<glyph unicode="&#xde;" horiz-adv-x="1230" d="M80 0v1434h270v-213h115q334 0 475 -72q211 -105 211 -404q0 -231 -125 -346q-102 -92 -303 -116q-94 -12 -373 -13v-270h-270zM350 496h266q117 0 185.5 66t68.5 183q0 250 -254 250h-266v-499z" />
<glyph unicode="&#xdf;" horiz-adv-x="1918" />
<glyph unicode="&#xe0;" horiz-adv-x="1255" d="M51 297q0 260 279 356q143 49 499 70v90q0 131 -71 182q-59 43 -195 43h2q-109 0 -166 -80q-37 -53 -63 -163l-195 98q78 328 424 328q213 0 338 -80q152 -98 152 -299v-545q0 -119 73 -119h78v-180q-137 -20 -143 -21q-170 0 -207 152q-172 -172 -414 -172 q-154 0 -268 92q-123 98 -123 248zM293 309h2q0 -84 67 -129q57 -39 148 -39q139 0 230 79t91 218l-2 125q-231 -29 -323 -57q-213 -66 -213 -197zM305 1593h264l181 -286h-164z" />
<glyph unicode="&#xe1;" horiz-adv-x="1255" d="M51 297q0 260 279 356q143 49 499 70v90q0 131 -71 182q-59 43 -195 43h2q-109 0 -166 -80q-37 -53 -63 -163l-195 98q78 328 424 328q213 0 338 -80q152 -98 152 -299v-545q0 -119 73 -119h78v-180q-137 -20 -143 -21q-170 0 -207 152q-172 -172 -414 -172 q-154 0 -268 92q-123 98 -123 248zM293 309h2q0 -84 67 -129q57 -39 148 -39q139 0 230 79t91 218l-2 125q-231 -29 -323 -57q-213 -66 -213 -197zM492 1323l180 285h264l-281 -285h-163z" />
<glyph unicode="&#xe2;" horiz-adv-x="1255" d="M51 297q0 260 279 356q143 49 499 70v90q0 131 -71 182q-59 43 -195 43h2q-109 0 -166 -80q-37 -53 -63 -163l-195 98q78 328 424 328q213 0 338 -80q152 -98 152 -299v-545q0 -119 73 -119h78v-180q-137 -20 -143 -21q-170 0 -207 152q-172 -172 -414 -172 q-154 0 -268 92q-123 98 -123 248zM293 309h2q0 -84 67 -129q57 -39 148 -39q139 0 230 79t91 218l-2 125q-231 -29 -323 -57q-213 -66 -213 -197zM301 1286l213 285h221l211 -285h-182l-139 172l-142 -172h-182z" />
<glyph unicode="&#xe3;" horiz-adv-x="1255" d="M51 297q0 260 279 356q143 49 499 70v90q0 131 -71 182q-59 43 -195 43h2q-109 0 -166 -80q-37 -53 -63 -163l-195 98q78 328 424 328q213 0 338 -80q152 -98 152 -299v-545q0 -119 73 -119h78v-180q-137 -20 -143 -21q-170 0 -207 152q-172 -172 -414 -172 q-154 0 -268 92q-123 98 -123 248zM272 1317q10 90 60 158q57 80 143 79q53 0 146.5 -39.5t138.5 -39.5q76 0 100 88h111q-12 -90 -64 -158q-57 -80 -141 -80q-55 0 -148.5 40t-136.5 40q-76 0 -98 -86zM293 309h2q0 -84 67 -129q57 -39 148 -39q139 0 230 79t91 218l-2 125 q-231 -29 -323 -57q-213 -66 -213 -197z" />
<glyph unicode="&#xe4;" horiz-adv-x="1495" d="M-47 -82v1577h385v287h696v-287h502v-1577h-1583zM55 358q0 -176 148 -295q137 -109 319 -108q301 0 508 213q45 -190 248 -191q74 0 164 25l2 205h-88q-92 0 -92 149v666q0 240 -183 356q-152 96 -405 97q-229 0 -340 -80q-125 -86 -213 -336l2 -10l235 -68 q45 156 105 215q68 68 209 68q166 0 237 -56q86 -63 86 -225v-113q-430 -25 -602 -84q-340 -115 -340 -428zM338 375q0 162 260 241q98 31 399 70v-154q0 -170 -112.5 -269t-282.5 -99q-111 0 -182 49q-82 57 -82 162zM401 1513h222v224h-222v-224zM748 1513h221v224h-221 v-224z" />
<glyph unicode="&#xe5;" horiz-adv-x="1255" d="M51 297q0 260 279 356q143 49 499 70v90q0 131 -71 182q-59 43 -195 43h2q-109 0 -166 -80q-37 -53 -63 -163l-195 98q78 328 424 328q213 0 338 -80q152 -98 152 -299v-545q0 -119 73 -119h78v-180q-137 -20 -143 -21q-170 0 -207 152q-172 -172 -414 -172 q-154 0 -268 92q-123 98 -123 248zM293 309h2q0 -84 67 -129q57 -39 148 -39q139 0 230 79t91 218l-2 125q-231 -29 -323 -57q-213 -66 -213 -197zM391 1417q0 80 61.5 141.5t143.5 61.5q80 0 142.5 -61.5t62.5 -143.5t-63.5 -142.5t-143.5 -60.5q-82 0 -142.5 62.5 t-60.5 142.5zM481 1415q0 -45 34 -80t81 -35t81 34t34 81t-34 81t-81 34t-81 -35t-34 -80z" />
<glyph unicode="&#xe6;" horiz-adv-x="2074" d="M4 -102v1597h2067v-1597h-2067zM98 297q0 -150 123 -248q117 -92 268 -92q211 0 414 172l84 72q166 -242 471 -242q209 0 356.5 109.5t196.5 310.5l-225 31q-16 -129 -101.5 -199t-218.5 -70q-164 0 -258 115q-88 106 -88 274l901 5q0 305 -127 483q-145 205 -438 205 q-268 0 -420 -160q-119 158 -424 158q-344 0 -422 -328l193 -98q27 111 63 161q57 82 164 82h2q135 0 195 -43q70 -51 70 -182v-90q-354 -20 -498 -70q-281 -96 -281 -356zM340 309q0 131 213 197q94 29 324 57l2 -125q0 -139 -90.5 -218t-231.5 -79q-88 0 -147 39 q-68 45 -68 129h-2zM1122 717q16 135 99.5 228t214.5 93q293 1 344 -321h-658z" />
<glyph unicode="&#xe7;" horiz-adv-x="1167" d="M66 580q0 256 147 430q158 184 412 184q178 0 302 -97.5t163 -271.5l-209 -51q-16 96 -89 157.5t-169 61.5q-162 0 -250 -131q-76 -113 -76 -280q0 -170 74 -281q88 -127 252 -127q207 0 282 232l199 -89q-137 -340 -467 -346l-64 -84l5 -4q18 8 61 8q68 0 118 -42 t50 -107q0 -92 -80 -143q-68 -43 -162 -43t-203 51l35 78q86 -31 129 -31q119 0 119 80q0 72 -98 71q-31 0 -70 -14l-43 37l111 147q-225 27 -357 197q-123 164 -122 408z" />
<glyph unicode="&#xe8;" horiz-adv-x="1280" d="M78 573q0 287 139 453q150 176 430 176q289 0 432 -201q123 -174 123 -475l-885 -4q-2 -164 84 -270q94 -113 254 -113q129 0 212 68.5t102 195.5l225 -28q-49 -197 -195.5 -306.5t-351.5 -109.5q-258 0 -416 180q-154 174 -153 434zM317 705h646q-51 317 -338 317h2 q-129 0 -215 -96q-78 -88 -95 -221zM344 1567h264l180 -285h-163z" />
<glyph unicode="&#xe9;" horiz-adv-x="1280" d="M78 573q0 287 139 453q150 176 430 176q289 0 432 -201q123 -174 123 -475l-885 -4q-2 -164 84 -270q94 -113 254 -113q129 0 212 68.5t102 195.5l225 -28q-49 -197 -195.5 -306.5t-351.5 -109.5q-258 0 -416 180q-154 174 -153 434zM317 705h646q-51 317 -338 317h2 q-129 0 -215 -96q-78 -88 -95 -221zM553 1292l180 285h264l-280 -285h-164z" />
<glyph unicode="&#xea;" horiz-adv-x="1280" d="M78 573q0 287 139 453q150 176 430 176q289 0 432 -201q123 -174 123 -475l-885 -4q-2 -164 84 -270q94 -113 254 -113q129 0 212 68.5t102 195.5l225 -28q-49 -197 -195.5 -306.5t-351.5 -109.5q-258 0 -416 180q-154 174 -153 434zM317 705h646q-51 317 -338 317h2 q-129 0 -215 -96q-78 -88 -95 -221zM367 1282l211 285h221l213 -285h-183l-141 172l-139 -172h-182z" />
<glyph unicode="&#xeb;" horiz-adv-x="1280" d="M78 573q0 287 139 453q150 176 430 176q289 0 432 -201q123 -174 123 -475l-885 -4q-2 -164 84 -270q94 -113 254 -113q129 0 212 68.5t102 195.5l225 -28q-49 -197 -195.5 -306.5t-351.5 -109.5q-258 0 -416 180q-154 174 -153 434zM317 705h646q-51 317 -338 317h2 q-129 0 -215 -96q-78 -88 -95 -221zM362 1346v221h224v-221h-224zM711 1346v221h221v-221h-221z" />
<glyph unicode="&#xec;" horiz-adv-x="487" d="M23 1587h264l180 -287h-164zM147 0v1001h242v-1001h-242z" />
<glyph unicode="&#xed;" horiz-adv-x="487" d="M18 0v1001h242v-1001h-242zM23 1286l180 285h266l-283 -285h-163z" />
<glyph unicode="&#xee;" horiz-adv-x="487" d="M-80 1309l215 286h221l211 -286h-182l-139 172l-142 -172h-184zM98 0v1001h242v-1001h-242z" />
<glyph unicode="&#xef;" horiz-adv-x="487" d="M-41 1358v221h223v-221h-223zM106 0v1001h242v-1001h-242zM307 1358v221h221v-221h-221z" />
<glyph unicode="&#xf0;" horiz-adv-x="1155" d="M55 510q0 238 143.5 386t381.5 148q55 0 106 -28l4 2q-70 84 -215 186l-182 -96l-100 78l178 94q-66 57 -146 90l199 133q94 -51 164 -108l190 100l101 -78l-189 -102q203 -160 301 -334q109 -192 109 -434q0 -254 -131 -408q-139 -162 -389 -162q-236 0 -380.5 148.5 t-144.5 384.5zM313 510q0 -127 68 -215q72 -94 197 -94q123 0 196 94q68 86 68 213t-70 218t-194 91q-123 0 -197 -94q-68 -86 -68 -213z" />
<glyph unicode="&#xf1;" horiz-adv-x="1232" d="M129 -14v1188h223v-156h-12l-4 -4q115 186 348 186q422 0 422 -432v-782h-223v759q0 248 -232 248q-135 0 -217 -79.5t-82 -213.5v-714h-223zM252 1335q10 90 59 158q57 80 144 80q55 0 148 -40t138 -40q74 0 99 86l110 2q-12 -90 -63 -158q-57 -80 -142 -80 q-55 0 -148 40t-136 40q-76 0 -99 -86z" />
<glyph unicode="&#xf2;" horiz-adv-x="1288" d="M88 582q0 256 150 430q158 182 409 182q250 0 406 -184q149 -172 149 -428q0 -254 -149 -426q-158 -182 -408 -183q-252 0 -409 181q-147 172 -148 428zM317 584q0 -170 76 -281q88 -127 252 -127q160 0 250 127q80 113 80 281t-80 280q-90 129 -250 129 q-162 0 -250 -129q-76 -113 -76 -280h-2zM362 1581h265l180 -285h-164z" />
<glyph unicode="&#xf3;" horiz-adv-x="1271" d="M80 582q0 256 149 430q158 182 410 182q250 0 405 -184q150 -172 150 -428q0 -254 -150 -426q-158 -182 -407 -183q-252 0 -410 181q-147 172 -147 428zM309 584q0 -170 76 -281q88 -127 252 -127q160 0 250 127q80 113 80 281t-80 280q-90 129 -250 129 q-162 0 -250 -129q-76 -113 -76 -280h-2zM483 1311l181 286h266l-281 -286h-166z" />
<glyph unicode="&#xf4;" horiz-adv-x="1288" d="M88 582q0 256 150 430q158 182 409 182q250 0 406 -184q149 -172 149 -428q0 -254 -149 -426q-158 -182 -408 -183q-252 0 -409 181q-147 172 -148 428zM317 584q0 -170 76 -281q88 -127 252 -127q160 0 250 127q80 113 80 281t-80 280q-90 129 -250 129 q-162 0 -250 -129q-76 -113 -76 -280h-2zM352 1288l211 285h223l211 -285h-182l-139 172l-141 -172h-183z" />
<glyph unicode="&#xf5;" horiz-adv-x="1288" d="M88 582q0 256 150 430q158 182 409 182q250 0 406 -184q149 -172 149 -428q0 -254 -149 -426q-158 -182 -408 -183q-252 0 -409 181q-147 172 -148 428zM293 1337q10 90 59 158q57 80 144 80q55 0 148 -40t138 -40q74 0 99 86l110 2q-12 -90 -63 -158q-57 -80 -142 -79 q-55 0 -148 39.5t-136 39.5q-76 0 -99 -86zM317 584q0 -170 76 -281q88 -127 252 -127q160 0 250 127q80 113 80 281t-80 280q-90 129 -250 129q-162 0 -250 -129q-76 -113 -76 -280h-2z" />
<glyph unicode="&#xf6;" horiz-adv-x="1529" d="M-27 -82v1577h437v287h696v-287h450v-1577h-1583zM86 705q0 -309 180 -519q190 -221 496 -221q303 0 493 221q181 210 181 519q0 311 -181 520q-190 219 -495 219q-303 0 -494 -221q-180 -211 -180 -518zM362 707q0 205 95 340q109 154 305 153q197 0 303 -156 q92 -134 92 -339q0 -203 -94 -338q-109 -154 -303 -154q-195 0 -303 156q-94 135 -95 338zM481 1530h221v223h-221v-223zM827 1530h222v223h-222v-223z" />
<glyph unicode="&#xf7;" horiz-adv-x="1411" d="M2 -160v1223h1407v-1223h-1407zM76 711l313 -312l86 90l-162 136q57 57 152 57q53 0 104 -25q61 -31 62 -77q0 -31 -46 -91.5t-46 -101.5q0 -53 49 -105.5t102 -52.5q51 0 133 51.5t123 51.5q33 0 56.5 -25.5t23.5 -58.5t-23.5 -93.5t-23.5 -93.5q0 -76 55.5 -127 t130.5 -51q105 0 185 84l-39 37q-70 -70 -150 -70q-45 0 -86 30t-41 73q0 33 32 101.5t32 107.5q0 59 -49.5 111.5t-108.5 52.5q-45 0 -118.5 -46.5t-108.5 -46.5q-25 0 -45.5 20.5t-20.5 45.5q0 37 52.5 108.5t52.5 118.5q0 90 -109 144q-90 43 -190 43q-111 0 -191 -45 l213 180l-86 90z" />
<glyph unicode="&#xf8;" horiz-adv-x="1155" d="M12 156l107 86q-63 117 -64 268q0 238 142.5 385t380.5 147q236 0 372 -143l103 84l90 -117l-107 -86q63 -119 64 -272q0 -238 -143.5 -385.5t-378.5 -147.5q-236 0 -375 146l-101 -82zM313 508q0 -55 15 -102l426 335q-68 74 -176 74q-123 0 -197 -94q-68 -86 -68 -213z M399 274q68 -74 179 -73q123 0 196 94q68 86 68 213q0 59 -15 108l-428 -340v-2z" />
<glyph unicode="&#xf9;" horiz-adv-x="1155" d="M111 358v803h219v-745q0 -233 252 -234q246 0 245 234v745h220v-803q0 -188 -144 -292q-129 -94 -323 -95q-197 0 -326 95q-143 104 -143 292zM324 1595h264l180 -286h-164z" />
<glyph unicode="&#xfa;" horiz-adv-x="1155" d="M111 358v803h219v-745q0 -233 252 -234q246 0 245 234v745h220v-803q0 -188 -144 -292q-129 -94 -323 -95q-197 0 -326 95q-143 104 -143 292zM446 1300l179 287h266l-281 -287h-164z" />
<glyph unicode="&#xfb;" horiz-adv-x="1155" d="M111 358v803h219v-745q0 -233 252 -234q246 0 245 234v745h220v-803q0 -188 -144 -292q-129 -94 -323 -95q-197 0 -326 95q-143 104 -143 292zM289 1294l213 285h221l211 -285h-182l-140 172l-141 -172h-182z" />
<glyph unicode="&#xfc;" horiz-adv-x="1417" d="M-27 -82v1577h396v287h696v-287h373v-1577h-1465zM133 434q0 -229 174 -356q158 -113 395 -113q236 0 394 113q176 127 176 356v975h-266v-907q0 -281 -304 -281q-303 0 -303 281v907h-264zM426 1526h221v223h-221v-223zM772 1526h221v223h-221v-223z" />
<glyph unicode="&#xfd;" horiz-adv-x="931" d="M-33 1161h246l252 -479l254 479h246l-392 -708v-453h-219v453zM264 1124l180 285h265l-281 -285h-164z" />
<glyph unicode="&#xfe;" horiz-adv-x="1155" d="M88 -326v1760h246l2 -504q125 115 291 114q203 0 327 -172q113 -153 113 -364q0 -213 -115 -365q-127 -168 -334 -168q-186 0 -280 123h-4v-424h-246zM326 510q0 -131 53 -213q63 -96 188 -96t189 96q53 82 53 213v-2q0 131 -53 213q-63 96 -189 96q-123 0 -186 -96 q-55 -82 -55 -211z" />
<glyph unicode="&#xff;" horiz-adv-x="1050" d="M29 1161h243l252 -479l254 479h246l-391 -708v-453h-219v453zM274 1317v221h222v-221h-222zM621 1317v221h223v-221h-223z" />
<glyph unicode="&#x152;" horiz-adv-x="2013" d="M49 717q0 295 172 516q186 238 475 237q166 0 289 -84v48h942v-250h-674v-326h598v-237h-598v-371h713v-250h-981v55q-119 -90 -289 -90q-301 0 -481 232q-166 213 -166 520zM330 713q0 -209 96 -346q111 -156 311 -156q248 0 248 154l-2 665q0 82 -88 137 q-76 49 -162 50q-199 0 -309 -158q-94 -139 -94 -346z" />
<glyph unicode="&#x153;" horiz-adv-x="2164" d="M63 592q0 260 152 436q160 186 416 186q274 0 436 -213q150 221 469 222q293 0 438 -205q127 -178 127 -483l-901 -5q0 -168 88 -274q94 -115 258 -115q131 0 216 70t104 199l225 -31q-51 -201 -198.5 -310.5t-354.5 -109.5q-301 0 -467 234q-158 -219 -440 -220 q-256 0 -416 185q-152 174 -152 434zM293 592l2 2q0 -172 78 -287q90 -129 256 -129q150 0 237 109q78 94 92 248q-2 23 -2 47q0 32 2 63q-14 154 -92 252q-90 113 -239 113q-166 0 -256 -131q-78 -115 -78 -287zM1202 717h658q-51 322 -344 321q-131 0 -220 -96 q-78 -90 -94 -225z" />
<glyph unicode="&#x178;" horiz-adv-x="1267" d="M33 1409h295l305 -582l307 582h295l-469 -858v-551h-264v551zM356 1526v223h224v-223h-224zM705 1526v223h221v-223h-221z" />
<glyph unicode="&#x2c6;" horiz-adv-x="485" d="M-86 1143l217 291h225l215 -291h-184l-143 176l-144 -176h-186z" />
<glyph unicode="&#x2dc;" horiz-adv-x="485" d="M-113 1153q12 92 64 162q59 80 145 80q55 0 149.5 -40t139.5 -40q78 0 100 88h113q-12 -92 -63 -160q-59 -80 -146 -80q-53 0 -146 39t-143 39q-78 0 -100 -88h-113z" />
<glyph unicode="&#x2000;" horiz-adv-x="949" />
<glyph unicode="&#x2001;" horiz-adv-x="1898" />
<glyph unicode="&#x2002;" horiz-adv-x="949" />
<glyph unicode="&#x2003;" horiz-adv-x="1898" />
<glyph unicode="&#x2004;" horiz-adv-x="632" />
<glyph unicode="&#x2005;" horiz-adv-x="474" />
<glyph unicode="&#x2006;" horiz-adv-x="316" />
<glyph unicode="&#x2007;" horiz-adv-x="316" />
<glyph unicode="&#x2008;" horiz-adv-x="237" />
<glyph unicode="&#x2009;" horiz-adv-x="379" />
<glyph unicode="&#x200a;" horiz-adv-x="105" />
<glyph unicode="&#x2010;" horiz-adv-x="669" d="M-18 369v430h706v-430h-706zM86 475h502v225h-502v-225z" />
<glyph unicode="&#x2011;" horiz-adv-x="669" d="M-18 369v430h706v-430h-706zM86 475h502v225h-502v-225z" />
<glyph unicode="&#x2012;" horiz-adv-x="669" d="M-18 369v430h706v-430h-706zM86 475h502v225h-502v-225z" />
<glyph unicode="&#x2013;" horiz-adv-x="1007" d="M0 475v225h1008v-225h-1008z" />
<glyph unicode="&#x2014;" horiz-adv-x="2013" d="M0 475v225h2013v-225h-2013z" />
<glyph unicode="&#x2018;" d="M-29 778v717h617v-717h-617zM143 1204l2 -330h271v277h-119v63q0 88 102 99l2 121q-258 -37 -258 -230z" />
<glyph unicode="&#x2019;" d="M-29 778v717h617v-717h-617zM145 1155h117v-61q0 -88 -102 -99v-121q256 33 256 228v332h-271v-279z" />
<glyph unicode="&#x201a;" d="M-29 -348v717h617v-717h-617zM145 0h117v-61q0 -88 -102 -99v-123q256 37 256 230v332h-271v-279z" />
<glyph unicode="&#x201c;" horiz-adv-x="782" d="M-29 778v717h840v-717h-840zM82 874h270v277h-116v63q0 88 102 99v121q-256 -37 -256 -230v-330zM430 874h270v277h-116v63q0 88 102 99v121q-256 -37 -256 -230v-330z" />
<glyph unicode="&#x201d;" horiz-adv-x="782" d="M-29 778v717h840v-717h-840zM82 1155h117v-61q0 -88 -103 -99v-121q256 33 256 228v332h-270v-279zM430 1155h117v-61q0 -88 -103 -99v-121q258 33 258 228l-2 332h-270v-279z" />
<glyph unicode="&#x201e;" horiz-adv-x="782" d="M-29 348h840v-717h-840v717zM82 0h117v-61q0 -88 -103 -99v-123q256 37 256 230v332h-270v-279zM430 0h117v-61q0 -88 -103 -99v-123q258 37 258 230l-2 332h-270v-279z" />
<glyph unicode="&#x2022;" horiz-adv-x="1007" d="M-23 205v1044h1053v-1044h-1053zM131 717q0 -145 107.5 -252t253.5 -107q145 0 251.5 107t106.5 252t-106.5 251.5t-251.5 106.5q-147 0 -254 -105.5t-107 -252.5z" />
<glyph unicode="&#x2026;" horiz-adv-x="2013" d="M201 0v279h270v-279h-270zM872 0v279h269v-279h-269zM1542 0v279h270v-279h-270z" />
<glyph unicode="&#x202f;" horiz-adv-x="379" />
<glyph unicode="&#x2039;" d="M135 440v295l289 228v-234l-168 -141l168 -142v-233z" />
<glyph unicode="&#x203a;" d="M135 213v233l168 142l-168 141v234l289 -228v-295z" />
<glyph unicode="&#x205f;" horiz-adv-x="474" />
<glyph unicode="&#x2122;" horiz-adv-x="1992" d="M-23 532v963h2038v-963h-2038zM119 1280h239v-676h191v676h239v154h-669v-154zM909 604h176v629h5l229 -629h137l230 629h4v-629h178v830h-269l-208 -568l-213 568h-269v-830z" />
<glyph unicode="&#x25fc;" horiz-adv-x="1495" d="M0 0v1495h1495v-1495h-1495z" />
</font>
</defs>
</svg>
